<?xml version="1.0" encoding="UTF-8" standalone="no"?>
<!-- Created with Inkscape (http://www.inkscape.org/) -->

<svg
   xmlns:dc="http://purl.org/dc/elements/1.1/"
   xmlns:cc="http://creativecommons.org/ns#"
   xmlns:rdf="http://www.w3.org/1999/02/22-rdf-syntax-ns#"
   xmlns:svg="http://www.w3.org/2000/svg"
   xmlns="http://www.w3.org/2000/svg"
   xmlns:sodipodi="http://sodipodi.sourceforge.net/DTD/sodipodi-0.dtd"
   xmlns:inkscape="http://www.inkscape.org/namespaces/inkscape"
   width="64px"
   height="64px"
   id="svg3763"
   version="1.1"
   inkscape:version="0.48.4 r9939"
   sodipodi:docname="application-json.svg">
  <defs
     id="defs3765" />
  <sodipodi:namedview
     id="base"
     pagecolor="#ffffff"
     bordercolor="#666666"
     borderopacity="1.0"
     inkscape:pageopacity="0.0"
     inkscape:pageshadow="2"
     inkscape:zoom="15.556349"
     inkscape:cx="32"
     inkscape:cy="32"
     inkscape:current-layer="layer1"
     showgrid="true"
     inkscape:document-units="px"
     inkscape:grid-bbox="true"
     inkscape:window-width="1920"
     inkscape:window-height="1008"
     inkscape:window-x="0"
     inkscape:window-y="0"
     inkscape:window-maximized="1" />
  <metadata
     id="metadata3768">
    <rdf:RDF>
      <cc:Work
         rdf:about="">
        <dc:format>image/svg+xml</dc:format>
        <dc:type
           rdf:resource="http://purl.org/dc/dcmitype/StillImage" />
        <dc:title></dc:title>
      </cc:Work>
    </rdf:RDF>
  </metadata>
  <g
     id="layer1"
     inkscape:label="Layer 1"
     inkscape:groupmode="layer">
    <rect
       style="fill:#4d4d4d;fill-opacity:1;stroke:none"
       id="rect3783"
       width="50.139595"
       height="31.682375"
       x="7.3332248"
       y="16.824966"
       ry="4.3636365" />
    <rect
       style="fill:#4d4d4d;fill-opacity:1;stroke:none"
       id="rect3790"
       width="55.347176"
       height="1.928473"
       x="4.8211827"
       y="31.665936"
       rx="0.77138925"
       ry="1.928473" />
    <g
       style="font-size:34px;font-style:normal;font-variant:normal;font-weight:normal;font-stretch:normal;text-align:start;line-height:125%;letter-spacing:0px;word-spacing:0px;writing-mode:lr-tb;text-anchor:start;fill:#000000;fill-opacity:1;stroke:none;font-family:Liberation Sans;-inkscape-font-specification:Liberation Sans"
       id="text3771">
      <path
         d="M 10.371331,48.556541 C 9.6519219,48.556534 9.0155293,48.440324 8.4621511,48.207909 7.9198273,47.986548 7.4660517,47.665585 7.1008229,47.245018 6.7355837,46.82444 6.4588912,46.315326 6.2707448,45.717674 6.0825895,45.120014 5.9885141,44.444885 5.9885182,43.692284 l 0,-5.993164 C 5.9885141,37.001858 5.9055064,36.409737 5.7394948,35.922752 5.5845432,35.435779 5.3521215,35.037342 5.0422292,34.72744 4.7433982,34.417551 4.3726303,34.185129 3.9299245,34.030174 3.4872145,33.875234 2.9836343,33.786692 2.4191823,33.764549 l 0,-2.108398 c 0.564452,-0.02213 1.0680322,-0.110667 1.5107422,-0.265625 0.4427058,-0.154938 0.8134737,-0.387359 1.1123047,-0.697266 0.3098923,-0.309885 0.542314,-0.708322 0.6972656,-1.195312 0.1660116,-0.486967 0.2490193,-1.073555 0.2490234,-1.759766 l 0,-6.009766 c -4.1e-6,-1.560525 0.3652299,-2.76137 1.0957032,-3.602539 0.7415305,-0.841121 1.8372325,-1.261694 3.2871096,-1.261718 l 2.241211,0 0,2.141601 -1.045899,0 c -1.00717,2.3e-5 -1.7265702,0.298851 -2.1582029,0.896485 -0.42058,0.586609 -0.6308663,1.477559 -0.6308594,2.672851 l 0,5.910156 c -6.9e-6,0.553398 -0.083015,1.062512 -0.2490234,1.527344 -0.1660221,0.464855 -0.3929099,0.87436 -0.6806641,1.228516 -0.2877661,0.354176 -0.6308647,0.653004 -1.0292968,0.896484 -0.3873744,0.243499 -0.8079469,0.420582 -1.2617188,0.53125 l 0,0.0332 c 0.4759073,0.110686 0.9075475,0.287769 1.2949219,0.53125 0.3984321,0.243498 0.7359969,0.54786 1.0126953,0.913086 0.2877541,0.354174 0.5091081,0.763679 0.6640625,1.228516 0.1660088,0.464849 0.2490165,0.979497 0.2490234,1.543945 l 0,5.926758 c -6.9e-6,1.173175 0.2102794,2.05859 0.6308594,2.65625 0.4316327,0.608719 1.1510329,0.913081 2.1582029,0.913086 l 1.045899,0 0,2.141601 -2.241211,0"
         style="font-size:34px"
         id="path3825" />
      <path
         d="m 52.489495,46.41494 c 1.007159,-5e-6 1.726559,-0.304367 2.158203,-0.913086 0.442704,-0.59766 0.664058,-1.483075 0.664062,-2.65625 l 0,-5.926758 c -4e-6,-0.564448 0.07747,-1.079096 0.232422,-1.543945 0.154943,-0.464837 0.370764,-0.874342 0.647461,-1.228516 0.287755,-0.365226 0.62532,-0.669588 1.012696,-0.913086 0.39843,-0.243481 0.835604,-0.420564 1.311523,-0.53125 l 0,-0.0332 c -0.464851,-0.110668 -0.890957,-0.287751 -1.27832,-0.53125 -0.387376,-0.24348 -0.724941,-0.542308 -1.012696,-0.896484 C 55.937081,30.886956 55.710193,30.477451 55.544182,30.012596 55.38923,29.547764 55.311756,29.03865 55.31176,28.485252 l 0,-5.910156 c -4e-6,-1.195292 -0.221358,-2.086242 -0.664062,-2.672851 -0.431644,-0.597634 -1.151044,-0.896462 -2.158203,-0.896485 l -0.996094,0 0,-2.141601 2.191406,0 c 1.449866,2.4e-5 2.540034,0.420597 3.270508,1.261718 0.74153,0.841169 1.112298,2.042014 1.112305,3.602539 l 0,6.009766 c -7e-6,0.686211 0.07747,1.272799 0.232422,1.759766 0.166008,0.48699 0.398429,0.885427 0.697265,1.195312 0.309888,0.309907 0.686189,0.542328 1.128907,0.697266 0.453766,0.154958 0.968414,0.243499 1.543945,0.265625 l 0,2.108398 c -0.575531,0.02214 -1.090179,0.110685 -1.543945,0.265625 -0.442718,0.154955 -0.819019,0.387377 -1.128907,0.697266 -0.298836,0.309902 -0.531257,0.708339 -0.697265,1.195312 -0.154955,0.486985 -0.232429,1.079106 -0.232422,1.776368 l 0,5.993164 c -7e-6,0.752601 -0.09408,1.42773 -0.282227,2.02539 -0.188157,0.597652 -0.46485,1.106766 -0.830078,1.527344 -0.36524,0.420567 -0.824549,0.74153 -1.37793,0.962891 -0.542321,0.232415 -1.17318,0.348625 -1.892578,0.348632 l -2.191406,0 0,-2.141601 0.996094,0"
         style="font-size:34px"
         id="path3827" />
    </g>
    <g
       style="font-size:22px;font-style:normal;font-variant:normal;font-weight:normal;font-stretch:normal;text-align:start;line-height:125%;letter-spacing:0px;word-spacing:0px;writing-mode:lr-tb;text-anchor:start;fill:#ffffff;fill-opacity:1;stroke:none;font-family:Liberation Sans;-inkscape-font-specification:Liberation Sans"
       id="text3792">
      <path
         d="m 16.452716,38.483636 0,-9.548 c 0,-0.681999 -0.132001,-0.902 -0.88,-0.902 l -3.476,0 c -0.351999,0 -0.902,10e-7 -0.902,0.682 0,0.66 0.55,0.66 0.88,0.66 l 2.86,0 0,8.998 c 0,0.374 0,1.210001 -0.572,1.98 -0.593999,0.836 -1.276,0.836 -1.782,0.836 -0.637999,0 -0.902,-0.044 -1.232,-0.088 0.022,-0.066 0.022,-0.11 0.022,-0.264 0,-0.615999 -0.506,-0.99 -0.968,-0.99 -0.5059993,0 -0.9899998,0.374001 -0.9899998,1.012 0,1.671999 2.1560008,1.672 3.0579998,1.672 3.189997,0 3.982,-2.640001 3.982,-4.048 m 0.022,-13.178 c 0,-0.615999 -0.484,-1.1 -1.1,-1.1 -0.615999,0 -1.1,0.484001 -1.1,1.1 0,0.616 0.484001,1.1 1.1,1.1 0.616,0 1.1,-0.484 1.1,-1.1"
         style="font-family:Latin Modern Mono;-inkscape-font-specification:Latin Modern Mono"
         id="path3816" />
      <path
         d="m 30.01331,34.765636 c 0,-2.287997 -2.838001,-2.75 -3.542,-2.86 l -1.496,-0.264 c -0.637999,-0.088 -2.134,-0.352 -2.134,-1.21 0,-0.571999 0.704002,-1.254 2.794,-1.254 1.825998,0 2.134,0.660001 2.2,1.232 0.022,0.374 0.066,0.748 0.748,0.748 0.769999,0 0.77,-0.462 0.77,-0.902 l 0,-1.518 c 0,-0.351999 -1e-6,-0.902 -0.66,-0.902 -0.528,0 -0.616,0.308001 -0.66,0.462 -0.967999,-0.461999 -1.936001,-0.462 -2.354,-0.462 -3.673996,0 -4.18,1.804001 -4.18,2.596 0,2.023998 2.310002,2.398001 4.334,2.706 1.077999,0.176 2.838,0.462002 2.838,1.628 0,0.814 -0.814002,1.54 -2.816,1.54 -1.033999,0 -2.266001,-0.242001 -2.816,-1.958 -0.11,-0.395999 -0.198001,-0.638 -0.77,-0.638 -0.769999,0 -0.77,0.462001 -0.77,0.902 l 0,2.134 c 0,0.352 10e-7,0.902 0.66,0.902 0.198,0 0.55,-0.022 0.814,-0.836 1.077999,0.792 2.244001,0.836 2.86,0.836 3.475996,0 4.18,-1.826001 4.18,-2.882"
         style="font-family:Latin Modern Mono;-inkscape-font-specification:Latin Modern Mono"
         id="path3818" />
      <path
         d="m 41.747904,32.763636 c 0,-2.749997 -2.046003,-4.928 -4.51,-4.928 -2.463998,0 -4.51,2.178003 -4.51,4.928 0,2.793998 2.090002,4.884 4.51,4.884 2.419997,0 4.51,-2.112002 4.51,-4.884 m -1.518,-0.154 c 0,2.045998 -1.364002,3.696 -2.992,3.696 -1.627999,0 -2.992,-1.650002 -2.992,-3.696 0,-2.001998 1.430001,-3.432 2.992,-3.432 1.583998,0 2.992,1.430002 2.992,3.432"
         style="font-family:Latin Modern Mono;-inkscape-font-specification:Latin Modern Mono"
         id="path3820" />
      <path
         d="m 54.296497,36.855636 c 0,-0.681999 -0.55,-0.682 -0.902,-0.682 l -0.968,0 0,-5.104 c 0,-2.221997 -1.122001,-3.168 -2.86,-3.168 -1.473998,0 -2.464,0.748001 -2.882,1.166 0,-0.703999 0,-1.034 -0.88,-1.034 l -1.606,0 c -0.351999,0 -0.902,10e-7 -0.902,0.682 0,0.66 0.572001,0.66 0.88,0.66 l 0.99,0 0,6.798 -0.968,0 c -0.351999,0 -0.902,10e-7 -0.902,0.682 0,0.66 0.572001,0.66 0.88,0.66 l 3.498,0 c 0.308,0 0.88,0 0.88,-0.66 0,-0.681999 -0.55,-0.682 -0.902,-0.682 l -0.968,0 0,-3.894 c 0,-2.199997 1.628002,-3.036 2.75,-3.036 1.165999,0 1.474,0.616002 1.474,1.936 l 0,4.994 -0.858,0 c -0.351999,0 -0.902,10e-7 -0.902,0.682 0,0.66 0.594001,0.66 0.902,0.66 l 3.366,0 c 0.308,0 0.88,0 0.88,-0.66"
         style="font-family:Latin Modern Mono;-inkscape-font-specification:Latin Modern Mono"
         id="path3822" />
    </g>
  </g>
</svg>
