<svg width="5888" height="5888" viewBox="0 0 5888 5888" xmlns="http://www.w3.org/2000/svg"><path d="M2048 3520v-128q0-26 19-45t45-19h1664q26 0 45 19t19 45v128q0 26-19 45t-45 19h-1664q-26 0-45-19t-19-45zm128-768v-128q0-26 19-45t45-19h1408q26 0 45 19t19 45v128q0 26-19 45t-45 19h-1408q-26 0-45-19t-19-45zm256 384v-128q0-26 19-45t45-19h896q26 0 45 19t19 45v128q0 26-19 45t-45 19h-896q-26 0-45-19t-19-45zm128-768v-128q0-26 19-45t45-19h640q26 0 45 19t19 45v128q0 26-19 45t-45 19h-640q-26 0-45-19t-19-45z"/></svg>