<svg width="5888" height="5888" viewBox="0 0 5888 5888" xmlns="http://www.w3.org/2000/svg"><path d="M2048 3392q0-26 19-45t45-19v-416q0-26 13-58t32-51l198-198q19-19 51-32t58-13h160v-320q0-26 19-45t45-19h1152q26 0 45 19t19 45v1152q0 26-19 45t-45 19h-192q0 106-75 181t-181 75-181-75-75-181h-384q0 106-75 181t-181 75-181-75-75-181h-128q-26 0-45-19t-19-45zm192-448h384v-256h-158q-14 2-22 9l-195 195q-7 12-9 22v30zm128 512q0 53 37.5 90.5t90.5 37.5 90.5-37.5 37.5-90.5-37.5-90.5-90.5-37.5-90.5 37.5-37.5 90.5zm512-672q0 14 9 23t23 9h224v224q0 14 9 23t23 9h192q14 0 23-9t9-23v-224h224q14 0 23-9t9-23v-192q0-14-9-23t-23-9h-224v-224q0-14-9-23t-23-9h-192q-14 0-23 9t-9 23v224h-224q-14 0-23 9t-9 23v192zm384 672q0 53 37.5 90.5t90.5 37.5 90.5-37.5 37.5-90.5-37.5-90.5-90.5-37.5-90.5 37.5-37.5 90.5z"/></svg>