<svg width="5888" height="5888" viewBox="0 0 5888 5888" xmlns="http://www.w3.org/2000/svg"><path d="M2240 3247v-430q0-42 30-72t73-30q42 0 72 30t30 72v430q0 43-29.5 73t-72.5 30-73-30-30-73zm241-549q0-117 64-215.5t172-153.5l-71-131q-7-13 5-20 13-6 20 6l72 132q95-42 201-42t201 42l72-132q7-12 20-6 12 7 5 20l-71 131q107 55 171 153.5t64 215.5h-925zm4 702v-666h918v666q0 46-32 78t-77 32h-75v227q0 43-30 73t-73 30-73-30-30-73v-227h-138v227q0 43-30 73t-73 30q-42 0-72-30t-30-73l-1-227h-74q-46 0-78-32t-32-78zm210-908q0 16 11 27.5t27 11.5 27.5-11.5 11.5-27.5-11.5-27.5-27.5-11.5-27 11.5-11 27.5zm421 0q0 16 11.5 27.5t27.5 11.5 27-11.5 11-27.5-11-27.5-27-11.5-27.5 11.5-11.5 27.5zm327 755v-430q0-43 30-72.5t72-29.5q43 0 73 29.5t30 72.5v430q0 43-30 73t-73 30q-42 0-72-30t-30-73z"/></svg>