<svg width="5888" height="5888" viewBox="0 0 5888 5888" xmlns="http://www.w3.org/2000/svg"><path d="M2176 2944q0-209 103-385.5t279.5-279.5 385.5-103 385.5 103 279.5 279.5 103 385.5-103 385.5-279.5 279.5-385.5 103-385.5-103-279.5-279.5-103-385.5zm224 0q0 148 73 273t198 198 273 73 273-73 198-198 73-273-73-273-198-198-273-73-273 73-198 198-73 273zm160 96v-192q0-13 9.5-22.5t22.5-9.5h352v-192q0-14 9-23t23-9q12 0 24 10l319 319q9 9 9 23t-9 23l-320 320q-9 9-23 9-13 0-22.5-9.5t-9.5-22.5v-192h-352q-13 0-22.5-9.5t-9.5-22.5z"/></svg>