<svg width="5888" height="5888" viewBox="0 0 5888 5888" xmlns="http://www.w3.org/2000/svg"><path d="M2048 3584v-1408h63v1408h-63zm94-1v-1407h32v1407h-32zm95 0v-1407h31v1407h-31zm157 0v-1407h31v1407h-31zm126 0v-1407h62v1407h-62zm157 0v-1407h31v1407h-31zm63 0v-1407h31v1407h-31zm63 0v-1407h31v1407h-31zm125 0v-1407h63v1407h-63zm157 0v-1407h63v1407h-63zm126 0v-1407h63v1407h-63zm126 0v-1407h63v1407h-63zm94 0v-1407h63v1407h-63zm158 0v-1407h94v1407h-94zm125 0v-1407h32v1407h-32zm63 1v-1408h63v1408h-63z"/></svg>