<svg width="5888" height="5888" viewBox="0 0 5888 5888" xmlns="http://www.w3.org/2000/svg"><path d="M2176 3424v-960q0-119 84.5-203.5t203.5-84.5h960q119 0 203.5 84.5t84.5 203.5v960q0 119-84.5 203.5t-203.5 84.5h-960q-119 0-203.5-84.5t-84.5-203.5zm128-94h382q117 0 197-57.5t80-170.5q0-158-143-200 107-52 107-164 0-57-19.5-96.5t-56.5-60.5-79-29.5-97-8.5h-371v787zm173-134v-217h189q124 0 124 113 0 104-128 104h-185zm0-335v-184h163q119 0 119 90 0 94-106 94h-176zm537 185q0 135 79 217t213 82q205 0 267-191h-138q-11 34-47.5 54t-75.5 20q-68 0-104-38t-36-107h411q1-10 1-30 0-132-74.5-220.5t-203.5-88.5q-128 0-210 86t-82 216zm126-373v-77h319v77h-319zm32 311q4-56 39-89t91-33q113 0 124 122h-254z"/></svg>