<svg width="5888" height="5888" viewBox="0 0 5888 5888" xmlns="http://www.w3.org/2000/svg"><path d="M2112 3456q190-161 287-397.5t97-498.5q0-165 96-262t264-117q-8-18-8-37 0-40 28-68t68-28 68 28 28 68q0 19-8 37 168 20 264 117t96 262q0 262 97 498.5t287 397.5q0 52-38 90t-90 38h-448q0 106-75 181t-181 75-181-75-75-181h-448q-52 0-90-38t-38-90zm183 0h1298q-164-181-246.5-411.5t-82.5-484.5q0-256-320-256t-320 256q0 254-82.5 484.5t-246.5 411.5zm473 128q0 73 51.5 124.5t124.5 51.5q16 0 16-16t-16-16q-59 0-101.5-42.5t-42.5-101.5q0-16-16-16t-16 16z"/></svg>