<svg width="5888" height="5888" viewBox="0 0 5888 5888" xmlns="http://www.w3.org/2000/svg"><path d="M2048 3136q0-143 55.5-273.5t150-225 225-150 273.5-55.5q182 0 343 89l64-64q19-19 45.5-19t45.5 19l68 68 243-244 46 46-244 243 68 68q19 19 19 45.5t-19 45.5l-64 64q89 161 89 343 0 143-55.5 273.5t-150 225-225 150-273.5 55.5-273.5-55.5-225-150-150-225-55.5-273.5zm170-167q10 24 35 34 13 5 24 5 42 0 60-40 34-84 98.5-148.5t148.5-98.5q25-11 35-35t0-49-34-35-49 0q-108 44-191 127t-127 191q-10 25 0 49zm1206-857q0-13 9-23 10-9 23-9t23 9l90 91q10 9 10 22.5t-10 22.5q-10 10-22 10-13 0-23-10l-91-90q-9-10-9-23zm160 64v-96q0-14 9-23t23-9 23 9 9 23v96q0 14-9 23t-23 9-23-9-9-23zm69 165.5q0-13.5 10-22.5 9-10 22.5-10t22.5 10l91 90q9 10 9 23t-9 23q-11 9-23 9t-23-9l-90-91q-10-9-10-22.5zm0-139q0-13.5 10-22.5l90-91q10-9 23-9t23 9q9 10 9 23t-9 23l-91 90q-10 10-22 10-13 0-23-10-10-9-10-22.5zm27 69.5q0-14 9-23t23-9h96q14 0 23 9t9 23-9 23-23 9h-96q-14 0-23-9t-9-23z"/></svg>