<svg width="5888" height="5888" viewBox="0 0 5888 5888" xmlns="http://www.w3.org/2000/svg"><path d="M2176 3776v-1664q0-26 19-45t45-19h1280q26 0 45 19t19 45v1664q0 26-19 45t-45 19h-1280q-26 0-45-19t-19-45zm256-352q0 14 9 23t23 9h64q14 0 23-9t9-23v-64q0-14-9-23t-23-9h-64q-14 0-23 9t-9 23v64zm0-256q0 14 9 23t23 9h64q14 0 23-9t9-23v-64q0-14-9-23t-23-9h-64q-14 0-23 9t-9 23v64zm0-256q0 14 9 23t23 9h64q14 0 23-9t9-23v-64q0-14-9-23t-23-9h-64q-14 0-23 9t-9 23v64zm0-256q0 14 9 23t23 9h64q14 0 23-9t9-23v-64q0-14-9-23t-23-9h-64q-14 0-23 9t-9 23v64zm0-256q0 14 9 23t23 9h64q14 0 23-9t9-23v-64q0-14-9-23t-23-9h-64q-14 0-23 9t-9 23v64zm256 1088v192q0 14 9 23t23 9h320q14 0 23-9t9-23v-192q0-14-9-23t-23-9h-320q-14 0-23 9t-9 23zm0-320q0 14 9 23t23 9h64q14 0 23-9t9-23v-64q0-14-9-23t-23-9h-64q-14 0-23 9t-9 23v64zm0-256q0 14 9 23t23 9h64q14 0 23-9t9-23v-64q0-14-9-23t-23-9h-64q-14 0-23 9t-9 23v64zm0-256q0 14 9 23t23 9h64q14 0 23-9t9-23v-64q0-14-9-23t-23-9h-64q-14 0-23 9t-9 23v64zm0-256q0 14 9 23t23 9h64q14 0 23-9t9-23v-64q0-14-9-23t-23-9h-64q-14 0-23 9t-9 23v64zm256 768q0 14 9 23t23 9h64q14 0 23-9t9-23v-64q0-14-9-23t-23-9h-64q-14 0-23 9t-9 23v64zm0-256q0 14 9 23t23 9h64q14 0 23-9t9-23v-64q0-14-9-23t-23-9h-64q-14 0-23 9t-9 23v64zm0-256q0 14 9 23t23 9h64q14 0 23-9t9-23v-64q0-14-9-23t-23-9h-64q-14 0-23 9t-9 23v64zm0-256q0 14 9 23t23 9h64q14 0 23-9t9-23v-64q0-14-9-23t-23-9h-64q-14 0-23 9t-9 23v64zm256 1024q0 14 9 23t23 9h64q14 0 23-9t9-23v-64q0-14-9-23t-23-9h-64q-14 0-23 9t-9 23v64zm0-256q0 14 9 23t23 9h64q14 0 23-9t9-23v-64q0-14-9-23t-23-9h-64q-14 0-23 9t-9 23v64zm0-256q0 14 9 23t23 9h64q14 0 23-9t9-23v-64q0-14-9-23t-23-9h-64q-14 0-23 9t-9 23v64zm0-256q0 14 9 23t23 9h64q14 0 23-9t9-23v-64q0-14-9-23t-23-9h-64q-14 0-23 9t-9 23v64zm0-256q0 14 9 23t23 9h64q14 0 23-9t9-23v-64q0-14-9-23t-23-9h-64q-14 0-23 9t-9 23v64z"/></svg>