<svg width="5888" height="5888" viewBox="0 0 5888 5888" xmlns="http://www.w3.org/2000/svg"><path d="M2176 2944q0-209 103-385.5t279.5-279.5 385.5-103 385.5 103 279.5 279.5 103 385.5-103 385.5-279.5 279.5-385.5 103-385.5-103-279.5-279.5-103-385.5zm128 0q0 130 51 248.5t136.5 204 204 136.5 248.5 51 248.5-51 204-136.5 136.5-204 51-248.5-51-248.5-136.5-204-204-136.5-248.5-51-248.5 51-204 136.5-136.5 204-51 248.5zm128 0q0-212 150-362t362-150 362 150 150 362-150 362-362 150-362-150-150-362zm128 0q0 159 112.5 271.5t271.5 112.5 271.5-112.5 112.5-271.5-112.5-271.5-271.5-112.5-271.5 112.5-112.5 271.5zm128 0q0-106 75-181t181-75 181 75 75 181-75 181-181 75-181-75-75-181z"/></svg>