<svg width="5888" height="5888" viewBox="0 0 5888 5888" xmlns="http://www.w3.org/2000/svg"><path d="M2112 3712v-1280q0-52 38-90t90-38h128v-96q0-66 47-113t113-47h64q66 0 113 47t47 113v96h384v-96q0-66 47-113t113-47h64q66 0 113 47t47 113v96h128q52 0 90 38t38 90v1280q0 52-38 90t-90 38h-1408q-52 0-90-38t-38-90zm128 0h288v-288h-288v288zm0-352h288v-320h-288v320zm0-384h288v-288h-288v288zm256-480q0 13 9.5 22.5t22.5 9.5h64q13 0 22.5-9.5t9.5-22.5v-288q0-13-9.5-22.5t-22.5-9.5h-64q-13 0-22.5 9.5t-9.5 22.5v288zm96 1216h320v-288h-320v288zm0-352h320v-320h-320v320zm0-384h320v-288h-320v288zm384 736h320v-288h-320v288zm0-352h320v-320h-320v320zm0-384h320v-288h-320v288zm288-480q0 13 9.5 22.5t22.5 9.5h64q13 0 22.5-9.5t9.5-22.5v-288q0-13-9.5-22.5t-22.5-9.5h-64q-13 0-22.5 9.5t-9.5 22.5v288zm96 1216h288v-288h-288v288zm0-352h288v-320h-288v320zm0-384h288v-288h-288v288z"/></svg>