<svg width="5888" height="5888" viewBox="0 0 5888 5888" xmlns="http://www.w3.org/2000/svg"><path d="M1984 3456v-896q0-106 75-181t181-75h224l51-136q19-49 69.5-84.5t103.5-35.5h512q53 0 103.5 35.5t69.5 84.5l51 136h224q106 0 181 75t75 181v896q0 106-75 181t-181 75h-1408q-106 0-181-75t-75-181zm512-448q0 185 131.5 316.5t316.5 131.5 316.5-131.5 131.5-316.5-131.5-316.5-316.5-131.5-316.5 131.5-131.5 316.5zm160 0q0-119 84.5-203.5t203.5-84.5 203.5 84.5 84.5 203.5-84.5 203.5-203.5 84.5-203.5-84.5-84.5-203.5z"/></svg>