<svg width="5888" height="5888" viewBox="0 0 5888 5888" xmlns="http://www.w3.org/2000/svg"><path d="M2048 3584v-1280q0-53 37.5-90.5t90.5-37.5h1536q53 0 90.5 37.5t37.5 90.5v1280q0 53-37.5 90.5t-90.5 37.5h-1536q-53 0-90.5-37.5t-37.5-90.5zm128 0h1536v-128h-1536v128zm0-1024h1536v-256h-828l-64 128h-644v128zm128-192h384v-128h-384v128zm256 642q0 159 112.5 271.5t271.5 112.5 271.5-112.5 112.5-271.5-112.5-271.5-271.5-112.5-271.5 112.5-112.5 271.5zm128 0q0-106 75-181t181-75 181 75 75 181-75 181-181 75-181-75-75-181zm96-2q0 14 9 23t23 9 23-9 9-23q0-40 28-68t68-28q14 0 23-9t9-23-9-23-23-9q-66 0-113 47t-47 113z"/></svg>