<svg width="5888" height="5888" viewBox="0 0 5888 5888" xmlns="http://www.w3.org/2000/svg"><path d="M1952 3424v-384q0-93 65.5-158.5t158.5-65.5h28l105-419q23-94 104-157.5t179-63.5h704q98 0 179 63.5t104 157.5l105 419h28q93 0 158.5 65.5t65.5 158.5v384q0 14-9 23t-23 9h-128v128q0 80-56 136t-136 56-136-56-56-136v-128h-928v128q0 80-56 136t-136 56-136-56-56-136v-128h-96q-14 0-23-9t-9-23zm160-288q0 66 47 113t113 47 113-47 47-113-47-113-113-47-113 47-47 113zm356-320h952l-89-357q-2-8-14-17.5t-21-9.5h-704q-9 0-21 9.5t-14 17.5zm956 320q0 66 47 113t113 47 113-47 47-113-47-113-113-47-113 47-47 113z"/></svg>