<svg width="5888" height="5888" viewBox="0 0 5888 5888" xmlns="http://www.w3.org/2000/svg"><path d="M2176 2944q0-209 103-385.5t279.5-279.5 385.5-103 385.5 103 279.5 279.5 103 385.5-103 385.5-279.5 279.5-385.5 103-385.5-103-279.5-279.5-103-385.5zm224 0q0 148 73 273t198 198 273 73 273-73 198-198 73-273-73-273-198-198-273-73-273 73-198 198-73 273zm122 0q0-26 19-45l102-102q19-19 45-19t45 19l147 147 275-275q19-19 45-19t45 19l102 102q19 19 19 45t-19 45l-422 422q-19 19-45 19t-45-19l-294-294q-19-19-19-45z"/></svg>