<svg width="5888" height="5888" viewBox="0 0 5888 5888" xmlns="http://www.w3.org/2000/svg"><path d="M1984 3136q0-130 70-240t188-165q-2-30-2-43 0-212 150-362t362-150q156 0 285.5 87t188.5 231q71-62 166-62 106 0 181 75t75 181q0 76-41 138 130 31 213.5 135.5t83.5 238.5q0 159-112.5 271.5t-271.5 112.5h-1088q-185 0-316.5-131.5t-131.5-316.5zm512-224q0 14 9 23t23 9h224v352q0 13 9.5 22.5t22.5 9.5h192q13 0 22.5-9.5t9.5-22.5v-352h224q13 0 22.5-9.5t9.5-22.5q0-14-9-23l-352-352q-9-9-23-9t-23 9l-351 351q-10 12-10 24z"/></svg>