<svg width="5888" height="5888" viewBox="0 0 5888 5888" xmlns="http://www.w3.org/2000/svg"><path d="M2176 3584v-170q119 84 325 127t443 43 443-43 325-127v170q0 69-103 128t-280 93.5-385 34.5-385-34.5-280-93.5-103-128zm0-384v-170q119 84 325 127t443 43 443-43 325-127v170q0 69-103 128t-280 93.5-385 34.5-385-34.5-280-93.5-103-128zm0-384v-170q119 84 325 127t443 43 443-43 325-127v170q0 69-103 128t-280 93.5-385 34.5-385-34.5-280-93.5-103-128zm0-384v-128q0-69 103-128t280-93.5 385-34.5 385 34.5 280 93.5 103 128v128q0 69-103 128t-280 93.5-385 34.5-385-34.5-280-93.5-103-128z"/></svg>