<svg width="5888" height="5888" viewBox="0 0 5888 5888" xmlns="http://www.w3.org/2000/svg"><path d="M2176 3573v-1258q0-58 40.5-98.5t98.5-40.5h1258q58 0 98.5 40.5t40.5 98.5v1258q0 58-40.5 98.5t-98.5 40.5h-1258q-58 0-98.5-40.5t-40.5-98.5zm71 0q0 28 20 48t48 20h1258q28 0 48-20t20-48v-1258q0-28-20-48t-48-20h-1258q-28 0-48 20t-20 48v1258zm50 0v-141l711-195-212-439q4-1 12-2.5t12-1.5q170-32 303.5-21.5t221 46 143.5 94.5q27 28-25 42-64 16-256 62l-97-198q-111-7-240 16l188 387 533-145v496q0 7-5.5 12.5t-12.5 5.5h-1258q-7 0-12.5-5.5t-5.5-12.5zm0-698v-560q0-7 5.5-12.5t12.5-5.5h1258q7 0 12.5 5.5t5.5 12.5v428q-85-30-188-52-294-64-645-12l-18 3-65-134h-233l85 190q-132 51-230 137zm125 296q-24-203 166-305l129 270-255 61q-14 3-26-4.5t-14-21.5z"/></svg>