<svg width="5888" height="5888" viewBox="0 0 5888 5888" xmlns="http://www.w3.org/2000/svg"><path d="M2048 2944q0-182 71-348t191-286 286-191 348-71 348 71 286 191 191 286 71 348-71 348-191 286-286 191-348 71-348-71-286-191-191-286-71-348zm44 0q0 173 67.5 331t181.5 272 272 181.5 331 67.5 331-67.5 272-181.5 181.5-272 67.5-331-67.5-331-181.5-272-272-181.5-331-67.5-331 67.5-272 181.5-181.5 272-67.5 331zm43 0q0-205 98-385l57 33q-30 56-49 112l82 28q-35 100-35 212 0 109 36 212l-83 28q22 60 49 112l-57 33q-98-180-98-385zm119 423l58-34q29 49 73 99l65-57q148 168 368 212l-17 86q65 12 121 13v66q-208-6-385-109.5t-283-275.5zm1-846q106-172 282-275.5t385-109.5v66q-65 2-121 13l17 86q-220 42-368 211l-65-56q-38 42-73 98zm208 258q33-93 99-169l185 162q59-68 147-86l-48-240q44-10 98-10t98 10l-48 240q88 18 147 86l185-162q66 76 99 169l-233 80q14 42 14 85t-14 85l232 80q-31 92-98 169l-185-162q-57 67-147 85l48 241q-52 10-98 10t-98-10l48-241q-90-18-147-85l-185 162q-67-77-98-169l232-80q-14-42-14-85t14-85zm503 907q56-1 121-13l-17-86q220-44 368-212l65 57q44-50 73-99l58 34q-106 172-283 275.5t-385 109.5v-66zm0-1484v-66q209 6 385 109.5t282 275.5l-57 33q-35-56-73-98l-65 56q-148-169-368-211l17-86q-56-11-121-13zm598 954q36-103 36-212 0-112-35-212l82-28q-19-56-49-112l57-33q98 180 98 385t-98 385l-57-33q27-52 49-112z"/></svg>