<svg width="5888" height="5888" viewBox="0 0 5888 5888" xmlns="http://www.w3.org/2000/svg"><path d="M2176 3424v-960q0-119 84.5-203.5t203.5-84.5h960q119 0 203.5 84.5t84.5 203.5v960q0 119-84.5 203.5t-203.5 84.5h-960q-119 0-203.5-84.5t-84.5-203.5zm256-192q0 40 28 68t68 28h832q40 0 68-28t28-68v-436q-31 35-64 55-34 22-132.5 85t-151.5 99q-98 69-164 69t-164-69q-46-32-141.5-92.5t-142.5-92.5q-12-8-33-27t-31-27v436zm0-576q0 37 30.5 76.5t67.5 64.5q47 32 137.5 89t129.5 83q3 2 17 11.5t21 14 21 13 23.5 13 21.5 9.5 22.5 7.5 20.5 2.5 20.5-2.5 22.5-7.5 21.5-9.5 23.5-13 21-13 21-14 17-11.5l267-174q35-23 66.5-62.5t31.5-73.5q0-41-27.5-70t-68.5-29h-832q-40 0-68 28t-28 68z"/></svg>