<svg width="5888" height="5888" viewBox="0 0 5888 5888" xmlns="http://www.w3.org/2000/svg"><path d="M2048 3008q0-34 20-69 140-229 376.5-368t499.5-139 499.5 139 376.5 368q20 35 20 69t-20 69q-140 230-376.5 368.5t-499.5 138.5-499.5-139-376.5-368q-20-35-20-69zm128 0q133 205 333.5 326.5t434.5 121.5 434.5-121.5 333.5-326.5q-152-236-381-353 61 104 61 225 0 185-131.5 316.5t-316.5 131.5-316.5-131.5-131.5-316.5q0-121 61-225-229 117-381 353zm464-128q0 20 14 34t34 14 34-14 14-34q0-86 61-147t147-61q20 0 34-14t14-34-14-34-34-14q-125 0-214.5 89.5t-89.5 214.5z"/></svg>