<svg width="5888" height="5888" viewBox="0 0 5888 5888" xmlns="http://www.w3.org/2000/svg"><path d="M2048 3680v-1088q0-66 47-113t113-47h128q66 0 113 47t47 113v1088q0 66-47 113t-113 47h-128q-66 0-113-47t-47-113zm512 0v-1536q0-40 28-68t68-28h672q40 0 88 20t76 48l152 152q28 28 48 76t20 88v163q58 34 93 93t35 128v768q0 106-75 181t-181 75h-864q-66 0-113-47t-47-113zm128-992h896v-256h-160q-40 0-68-28t-28-68v-160h-640v512zm96 896q0 14 9 23t23 9h128q14 0 23-9t9-23v-128q0-14-9-23t-23-9h-128q-14 0-23 9t-9 23v128zm0-256q0 14 9 23t23 9h128q14 0 23-9t9-23v-128q0-14-9-23t-23-9h-128q-14 0-23 9t-9 23v128zm0-256q0 14 9 23t23 9h128q14 0 23-9t9-23v-128q0-14-9-23t-23-9h-128q-14 0-23 9t-9 23v128zm256 512q0 14 9 23t23 9h128q14 0 23-9t9-23v-128q0-14-9-23t-23-9h-128q-14 0-23 9t-9 23v128zm0-256q0 14 9 23t23 9h128q14 0 23-9t9-23v-128q0-14-9-23t-23-9h-128q-14 0-23 9t-9 23v128zm0-256q0 14 9 23t23 9h128q14 0 23-9t9-23v-128q0-14-9-23t-23-9h-128q-14 0-23 9t-9 23v128zm256 512q0 14 9 23t23 9h128q14 0 23-9t9-23v-128q0-14-9-23t-23-9h-128q-14 0-23 9t-9 23v128zm0-256q0 14 9 23t23 9h128q14 0 23-9t9-23v-128q0-14-9-23t-23-9h-128q-14 0-23 9t-9 23v128zm0-256q0 14 9 23t23 9h128q14 0 23-9t9-23v-128q0-14-9-23t-23-9h-128q-14 0-23 9t-9 23v128z"/></svg>