<svg width="5888" height="5888" viewBox="0 0 5888 5888" xmlns="http://www.w3.org/2000/svg"><path d="M2176 3744v-1600q0-40 28-68t68-28h896q40 0 88 20t76 48l312 312q28 28 48 76t20 88v1152q0 40-28 68t-68 28h-1344q-40 0-68-28t-28-68zm128-32h1280v-1024h-416q-40 0-68-28t-28-68v-416h-768v1536zm126-557q-14-19 0-38l226-301q8-11 21-12.5t24 6.5l51 38q11 8 12.5 21t-6.5 24l-182 243 182 243q8 11 6.5 24t-12.5 21l-51 38q-11 8-24 6.5t-21-12.5zm382 386l138-831q2-13 13-20.5t24-5.5l63 10q13 2 20.5 13t5.5 24l-138 831q-2 13-13 20.5t-24 5.5l-63-10q-13-2-20.5-13t-5.5-24zm311.5-138q-1.5-13 6.5-24l182-243-182-243q-8-11-6.5-24t12.5-21l51-38q11-8 24-6.5t21 12.5l226 301q14 19 0 38l-226 301q-8 11-21 12.5t-24-6.5l-51-38q-11-8-12.5-21zm76.5-843h376q-10-29-22-41l-313-313q-12-12-41-22v376z"/></svg>