<svg width="5888" height="5888" viewBox="0 0 5888 5888" xmlns="http://www.w3.org/2000/svg"><path d="M2176 3744v-1600q0-40 28-68t68-28h896q40 0 88 20t76 48l312 312q28 28 48 76t20 88v1152q0 40-28 68t-68 28h-1344q-40 0-68-28t-28-68zm128-32h1280v-1024h-416q-40 0-68-28t-28-68v-416h-128v128h-128v-128h-512v1536zm256-320q0-25 8-52 21-63 120-396v-128h128v128h79q22 0 39 13t23 34l107 349q8 27 8 52 0 83-72.5 137.5t-183.5 54.5-183.5-54.5-72.5-137.5zm128 0q0 26 37.5 45t90.5 19 90.5-19 37.5-45-37.5-45-90.5-19-90.5 19-37.5 45zm0-704h128v-128h-128v128zm0-256h128v-128h-128v128zm128 384h128v-128h-128v128zm0-256h128v-128h-128v128zm384 0h376q-10-29-22-41l-313-313q-12-12-41-22v376z"/></svg>