<svg width="5888" height="5888" viewBox="0 0 5888 5888" xmlns="http://www.w3.org/2000/svg"><path d="M2176 3744v-1600q0-40 28-68t68-28h896q40 0 88 20t76 48l312 312q28 28 48 76t20 88v1152q0 40-28 68t-68 28h-1344q-40 0-68-28t-28-68zm128-32h1280v-1024h-416q-40 0-68-28t-28-68v-416h-768v1536zm288-128h327v-106h-93v-167h137q76 0 118-15 67-23 106.5-87t39.5-146q0-81-37-141t-100-87q-48-19-130-19h-368v107h92v555h-92v106zm234-386v-268h120q52 0 83 18 56 33 56 115 0 89-62 120-31 15-78 15h-119zm374-638h376q-10-29-22-41l-313-313q-12-12-41-22v376z"/></svg>