<svg width="5888" height="5888" viewBox="0 0 5888 5888" xmlns="http://www.w3.org/2000/svg"><path d="M2176 3744v-1600q0-40 28-68t68-28h896q40 0 88 20t76 48l312 312q28 28 48 76t20 88v1152q0 40-28 68t-68 28h-1344q-40 0-68-28t-28-68zm128-32h1280v-1024h-416q-40 0-68-28t-28-68v-416h-768v1536zm128-384v-384q0-52 38-90t90-38h384q52 0 90 38t38 90v384q0 52-38 90t-90 38h-384q-52 0-90-38t-38-90zm704-147v-90l265-266q9-9 23-9 4 0 12 2 20 8 20 30v576q0 22-20 30-8 2-12 2-14 0-23-9zm64-621h376q-10-29-22-41l-313-313q-12-12-41-22v376z"/></svg>