<svg width="5888" height="5888" viewBox="0 0 5888 5888" xmlns="http://www.w3.org/2000/svg"><path d="M2176 3744v-1600q0-40 28-68t68-28h800v544q0 40 28 68t68 28h544v1056q0 40-28 68t-68 28h-1344q-40 0-68-28t-28-68zm384-320q0 14 9 23t23 9h704q14 0 23-9t9-23v-64q0-14-9-23t-23-9h-704q-14 0-23 9t-9 23v64zm0-256q0 14 9 23t23 9h704q14 0 23-9t9-23v-64q0-14-9-23t-23-9h-704q-14 0-23 9t-9 23v64zm0-256q0 14 9 23t23 9h704q14 0 23-9t9-23v-64q0-14-9-23t-23-9h-704q-14 0-23 9t-9 23v64zm640-352v-472q22 14 36 28l408 408q14 14 28 36h-472z"/></svg>