<svg width="5888" height="5888" viewBox="0 0 5888 5888" xmlns="http://www.w3.org/2000/svg"><path d="M1984 3680v-1344q0-66 47-113t113-47h1600q66 0 113 47t47 113v1344q0 66-47 113t-113 47h-1600q-66 0-113-47t-47-113zm128-160v128q0 26 19 45t45 19h128q26 0 45-19t19-45v-128q0-26-19-45t-45-19h-128q-26 0-45 19t-19 45zm0-256q0 26 19 45t45 19h128q26 0 45-19t19-45v-128q0-26-19-45t-45-19h-128q-26 0-45 19t-19 45v128zm0-384q0 26 19 45t45 19h128q26 0 45-19t19-45v-128q0-26-19-45t-45-19h-128q-26 0-45 19t-19 45v128zm0-384q0 26 19 45t45 19h128q26 0 45-19t19-45v-128q0-26-19-45t-45-19h-128q-26 0-45 19t-19 45v128zm384 1152q0 26 19 45t45 19h768q26 0 45-19t19-45v-512q0-26-19-45t-45-19h-768q-26 0-45 19t-19 45v512zm0-768q0 26 19 45t45 19h768q26 0 45-19t19-45v-512q0-26-19-45t-45-19h-768q-26 0-45 19t-19 45v512zm1024 640v128q0 26 19 45t45 19h128q26 0 45-19t19-45v-128q0-26-19-45t-45-19h-128q-26 0-45 19t-19 45zm0-256q0 26 19 45t45 19h128q26 0 45-19t19-45v-128q0-26-19-45t-45-19h-128q-26 0-45 19t-19 45v128zm0-384q0 26 19 45t45 19h128q26 0 45-19t19-45v-128q0-26-19-45t-45-19h-128q-26 0-45 19t-19 45v128zm0-384q0 26 19 45t45 19h128q26 0 45-19t19-45v-128q0-26-19-45t-45-19h-128q-26 0-45 19t-19 45v128z"/></svg>