<svg width="5888" height="5888" viewBox="0 0 5888 5888" xmlns="http://www.w3.org/2000/svg"><path d="M2112 2944q0-75 53-128l587-587q53-53 128-53t128 53l265 265-398 399-188-188q-42-42-99-42-59 0-100 41l-120 121q-42 40-42 99 0 58 42 100l406 408q30 28 67 37l6 4h28q60 0 99-41l619-619 2 3q53 53 53 128t-53 128l-587 587q-52 53-127.5 53t-128.5-53l-587-587q-53-53-53-128zm302-20q0-21 14-35l121-120q13-15 35-15t36 15l252 252 574-575q15-15 36-15t36 15l120 120q14 15 14 36t-14 36l-730 730q-17 15-37 15-4 0-6-1-18-2-30-14l-407-408q-14-15-14-36z"/></svg>