<svg width="5888" height="5888" viewBox="0 0 5888 5888" xmlns="http://www.w3.org/2000/svg"><path d="M2176 2944q0-209 103-385.5t279.5-279.5 385.5-103 385.5 103 279.5 279.5 103 385.5-103 385.5-279.5 279.5-385.5 103-385.5-103-279.5-279.5-103-385.5zm128 0q0 130 51 248.5t136.5 204 204 136.5 248.5 51 248.5-51 204-136.5 136.5-204 51-248.5-51-248.5-136.5-204-204-136.5-248.5-51-248.5 51-204 136.5-136.5 204-51 248.5zm256-256q0-53 37.5-90.5t90.5-37.5 90.5 37.5 37.5 90.5-37.5 90.5-90.5 37.5-90.5-37.5-37.5-90.5zm18 589q37-121 138-195t228-74 228 74 138 195q8 25-4 48.5t-37 31.5-49-4-32-38q-25-80-92.5-129.5t-151.5-49.5-151.5 49.5-92.5 129.5q-8 26-31.5 38t-48.5 4q-26-8-38-31.5t-4-48.5zm494-589q0-53 37.5-90.5t90.5-37.5 90.5 37.5 37.5 90.5-37.5 90.5-90.5 37.5-90.5-37.5-37.5-90.5z"/></svg>