<svg width="5888" height="5888" viewBox="0 0 5888 5888" xmlns="http://www.w3.org/2000/svg"><path d="M2176 3040v-320q0-14 9-23t23-9h440q-93 0-158.5-65.5t-65.5-158.5 65.5-158.5 158.5-65.5q107 0 168 77l128 165 128-165q61-77 168-77 93 0 158.5 65.5t65.5 158.5-65.5 158.5-158.5 65.5h440q14 0 23 9t9 23v320q0 14-9 23t-23 9h-96v416q0 40-28 68t-68 28h-1088q-40 0-68-28t-28-68v-416h-96q-14 0-23-9t-9-23zm376-576q0 40 28 68t68 28h195l-126-161q-26-31-69-31-40 0-68 28t-28 68zm232 940q0 25 18 38.5t46 13.5h192q28 0 46-13.5t18-38.5v-716h-320v716zm262-844h194q40 0 68-28t28-68-28-68-68-28q-43 0-69 31z"/></svg>