<svg width="5888" height="5888" viewBox="0 0 5888 5888" xmlns="http://www.w3.org/2000/svg"><path d="M2176 2944q0-209 103-385.5t279.5-279.5 385.5-103 385.5 103 279.5 279.5 103 385.5-103 385.5-279.5 279.5-385.5 103-385.5-103-279.5-279.5-103-385.5zm512 480q0 14 9 23t23 9h448q14 0 23-9t9-23v-160q0-14-9-23t-23-9h-96v-512q0-14-9-23t-23-9h-320q-14 0-23 9t-9 23v160q0 14 9 23t23 9h96v320h-96q-14 0-23 9t-9 23v160zm128-896q0 14 9 23t23 9h192q14 0 23-9t9-23v-160q0-14-9-23t-23-9h-192q-14 0-23 9t-9 23v160z"/></svg>