<svg width="5888" height="5888" viewBox="0 0 5888 5888" xmlns="http://www.w3.org/2000/svg"><path d="M1984 3456v-896q0-53 37.5-90.5t90.5-37.5h1664q53 0 90.5 37.5t37.5 90.5v896q0 53-37.5 90.5t-90.5 37.5h-1664q-53 0-90.5-37.5t-37.5-90.5zm128 0h1664v-896h-1664v896zm128-144v-96q0-16 16-16h96q16 0 16 16v96q0 16-16 16h-96q-16 0-16-16zm0-256v-96q0-16 16-16h224q16 0 16 16v96q0 16-16 16h-224q-16 0-16-16zm0-256v-96q0-16 16-16h96q16 0 16 16v96q0 16-16 16h-96q-16 0-16-16zm256 512v-96q0-16 16-16h864q16 0 16 16v96q0 16-16 16h-864q-16 0-16-16zm0-512v-96q0-16 16-16h96q16 0 16 16v96q0 16-16 16h-96q-16 0-16-16zm128 256v-96q0-16 16-16h96q16 0 16 16v96q0 16-16 16h-96q-16 0-16-16zm128-256v-96q0-16 16-16h96q16 0 16 16v96q0 16-16 16h-96q-16 0-16-16zm128 256v-96q0-16 16-16h96q16 0 16 16v96q0 16-16 16h-96q-16 0-16-16zm128-256v-96q0-16 16-16h96q16 0 16 16v96q0 16-16 16h-96q-16 0-16-16zm128 256v-96q0-16 16-16h96q16 0 16 16v96q0 16-16 16h-96q-16 0-16-16zm128-256v-96q0-16 16-16h96q16 0 16 16v96q0 16-16 16h-96q-16 0-16-16zm128 256v-96q0-16 16-16h112v-240q0-16 16-16h96q16 0 16 16v352q0 16-16 16h-224q-16 0-16-16zm128 256v-96q0-16 16-16h96q16 0 16 16v96q0 16-16 16h-96q-16 0-16-16z"/></svg>