<svg width="5888" height="5888" viewBox="0 0 5888 5888" xmlns="http://www.w3.org/2000/svg"><path d="M2048 2912v-64q0-14 9-23t23-9h175l-33-128h-142q-14 0-23-9t-9-23v-64q0-14 9-23t23-9h109l-89-344q-5-15 5-28 10-12 26-12h137q26 0 31 24l90 360h359l97-360q7-24 31-24h126q24 0 31 24l98 360h365l93-360q5-24 31-24h137q16 0 26 12 10 13 5 28l-91 344h111q14 0 23 9t9 23v64q0 14-9 23t-23 9h-145l-34 128h179q14 0 23 9t9 23v64q0 14-9 23t-23 9h-213l-164 616q-7 24-31 24h-159q-24 0-31-24l-166-616h-209l-167 616q-7 24-31 24h-159q-11 0-19.5-7t-10.5-17l-160-616h-208q-14 0-23-9t-9-23zm373-224l32 128h225l35-128h-292zm63 256l75 300q1 1 1 3t1 3q0-1 .5-3.5t.5-3.5l81-299h-159zm386-128h139l-35-128h-70zm296-128l34 128h230l33-128h-297zm69 256l81 299q0 1 .5 3.5t1.5 3.5q0-1 .5-3t.5-3l78-300h-162z"/></svg>