<svg width="5888" height="5888" viewBox="0 0 5888 5888" xmlns="http://www.w3.org/2000/svg"><path d="M2048 2944q0-182 71-348t191-286 286-191 348-71 348 71 286 191 191 286 71 348-71 348-191 286-286 191-348 71-348-71-286-191-191-286-71-348zm128 0q0 190 90 361l194-194q-28-82-28-167t28-167l-194-194q-90 171-90 361zm384 0q0 159 112.5 271.5t271.5 112.5 271.5-112.5 112.5-271.5-112.5-271.5-271.5-112.5-271.5 112.5-112.5 271.5zm23 678q171 90 361 90t361-90l-194-194q-82 28-167 28t-167-28zm0-1356l194 194q82-28 167-28t167 28l194-194q-171-90-361-90t-361 90zm845 845l194 194q90-171 90-361t-90-361l-194 194q28 82 28 167t-28 167z"/></svg>