<svg width="5888" height="5888" viewBox="0 0 5888 5888" xmlns="http://www.w3.org/2000/svg"><path d="M2176 3424v-960q0-119 84.5-203.5t203.5-84.5h960q119 0 203.5 84.5t84.5 203.5v960q0 119-84.5 203.5t-203.5 84.5h-960q-119 0-203.5-84.5t-84.5-203.5zm223-870q0 51 35.5 85.5t92.5 34.5h1q59 0 95-34.5t36-85.5q-1-52-36-86t-93-34-94.5 34-36.5 86zm14 908h231v-694h-231v694zm358 0h231v-388q0-38 7-56 15-35 45-59.5t74-24.5q116 0 116 157v371h231v-398q0-154-73-233t-193-79q-136 0-209 117h2v-101h-231q3 66 0 694z"/></svg>