<svg width="5888" height="5888" viewBox="0 0 5888 5888" xmlns="http://www.w3.org/2000/svg"><path d="M2048 3456q0-80 56-136t136-56 136 56 56 136-56 136-136 56-136-56-56-136zm0-512q0-80 56-136t136-56 136 56 56 136-56 136-136 56-136-56-56-136zm0-512q0-80 56-136t136-56 136 56 56 136-56 136-136 56-136-56-56-136zm512 1120v-192q0-13 9.5-22.5t22.5-9.5h1216q13 0 22.5 9.5t9.5 22.5v192q0 13-9.5 22.5t-22.5 9.5h-1216q-13 0-22.5-9.5t-9.5-22.5zm0-512v-192q0-13 9.5-22.5t22.5-9.5h1216q13 0 22.5 9.5t9.5 22.5v192q0 13-9.5 22.5t-22.5 9.5h-1216q-13 0-22.5-9.5t-9.5-22.5zm0-512v-192q0-13 9.5-22.5t22.5-9.5h1216q13 0 22.5 9.5t9.5 22.5v192q0 13-9.5 22.5t-22.5 9.5h-1216q-13 0-22.5-9.5t-9.5-22.5z"/></svg>