<svg width="5888" height="5888" viewBox="0 0 5888 5888" xmlns="http://www.w3.org/2000/svg"><path d="M2048 3424v-1088q0-66 47-113t113-47h1472q66 0 113 47t47 113v1088q0 66-47 113t-113 47h-1472q-66 0-113-47t-47-113zm128 0q0 13 9.5 22.5t22.5 9.5h1472q13 0 22.5-9.5t9.5-22.5v-832q0-13-9.5-22.5t-22.5-9.5h-1472q-13 0-22.5 9.5t-9.5 22.5v832zm128-128v-64q0-13 9.5-22.5t22.5-9.5h64q13 0 22.5 9.5t9.5 22.5v64q0 13-9.5 22.5t-22.5 9.5h-64q-13 0-22.5-9.5t-9.5-22.5zm0-256v-64q0-13 9.5-22.5t22.5-9.5h64q13 0 22.5 9.5t9.5 22.5v64q0 13-9.5 22.5t-22.5 9.5h-64q-13 0-22.5-9.5t-9.5-22.5zm0-256v-64q0-13 9.5-22.5t22.5-9.5h64q13 0 22.5 9.5t9.5 22.5v64q0 13-9.5 22.5t-22.5 9.5h-64q-13 0-22.5-9.5t-9.5-22.5zm256 512v-64q0-13 9.5-22.5t22.5-9.5h960q13 0 22.5 9.5t9.5 22.5v64q0 13-9.5 22.5t-22.5 9.5h-960q-13 0-22.5-9.5t-9.5-22.5zm0-256v-64q0-13 9.5-22.5t22.5-9.5h960q13 0 22.5 9.5t9.5 22.5v64q0 13-9.5 22.5t-22.5 9.5h-960q-13 0-22.5-9.5t-9.5-22.5zm0-256v-64q0-13 9.5-22.5t22.5-9.5h960q13 0 22.5 9.5t9.5 22.5v64q0 13-9.5 22.5t-22.5 9.5h-960q-13 0-22.5-9.5t-9.5-22.5z"/></svg>