<svg width="5888" height="5888" viewBox="0 0 5888 5888" xmlns="http://www.w3.org/2000/svg"><path d="M2048 3488v-832q0-92 66-158t158-66h32v1280h-32q-92 0-158-66t-66-158zm352 224v-1280h160v-160q0-40 28-68t68-28h576q40 0 68 28t28 68v160h160v1280h-1088zm160-544q0 14 9 23t23 9h224v224q0 14 9 23t23 9h192q14 0 23-9t9-23v-224h224q14 0 23-9t9-23v-192q0-14-9-23t-23-9h-224v-224q0-14-9-23t-23-9h-192q-14 0-23 9t-9 23v224h-224q-14 0-23 9t-9 23v192zm128-736h512v-128h-512v128zm896 1280v-1280h32q92 0 158 66t66 158v832q0 92-66 158t-158 66h-32z"/></svg>