<svg width="5888" height="5888" viewBox="0 0 5888 5888" xmlns="http://www.w3.org/2000/svg"><path d="M1984 3520v-1152q0-26 19-45t45-19h1792q26 0 45 19t19 45v1152q0 26-19 45t-45 19h-1792q-26 0-45-19t-19-45zm128-320q106 0 181 75t75 181h1152q0-106 75-181t181-75v-512q-106 0-181-75t-75-181h-1152q0 106-75 181t-181 75v512zm512-256q0-70 21-142t59.5-134 101.5-101 138-39 138 39 101.5 101 59.5 134 21 142-21 142-59.5 134-101.5 101-138 39-138-39-101.5-101-59.5-134-21-142zm122-151l77 80q42-37 55-57h2v288h-128v96h384v-96h-128v-448h-114z"/></svg>