<svg width="5888" height="5888" viewBox="0 0 5888 5888" xmlns="http://www.w3.org/2000/svg"><path d="M2176 3424v-960q0-119 84.5-203.5t203.5-84.5h960q119 0 203.5 84.5t84.5 203.5v960q0 119-84.5 203.5t-203.5 84.5h-960q-119 0-203.5-84.5t-84.5-203.5zm293-228l211-41v-206q55 19 116 19 125 0 213.5-95t88.5-229-88.5-229-213.5-95q-74 0-141 36h-186v840zm211-416v-277q28-17 70-17 53 0 91 45t38 109-38 109.5-91 45.5q-43 0-70-15zm132 843l211-41v-206q51 19 117 19 125 0 213-95t88-229-88-229-213-95q-20 0-39 3-23 78-78 136-87 95-211 101v636zm211-416v-277q28-17 70-17 53 0 91 45.5t38 109.5-38 109-91 45q-43 0-70-15z"/></svg>