<svg width="5888" height="5888" viewBox="0 0 5888 5888" xmlns="http://www.w3.org/2000/svg"><path d="M2064 2614l433 17 180 379-147-92q-63 72-111.5 144.5t-72.5 125-39.5 94.5-18.5 63l-4 21-190-357q-17-26-18-56t6-47l8-18q35-63 114-188zm254.5 812q-3.5-28 4-65t12-55 21.5-64 19-53q78 12 509 28l-15 368-2 22-420-29q-36-3-67-31.5t-47-65.5q-11-27-14.5-55zm23.5-966l225-356q20-31 60-45t80-10q24 2 48.5 12t42 21 41.5 33 36 34.5 36 39.5 32 35q-47 63-265 435l-317-187zm488-400l405 1q31-3 58 10.5t39 28.5l11 15q39 61 112 190l142-83-220 373-419-20 151-86q-34-89-75-166t-75.5-123.5-64.5-80-47-46.5zm171 1327l211-362 7 173q170 16 283 5t170-33l56-22-188 359q-12 29-36.5 46.5t-43.5 20.5l-18 4q-71 7-219 12l8 164zm265-650l313-195 19-11 212 363q18 37 12.5 76t-27.5 74q-13 20-33 37t-38 28-48.5 22-47 16-51.5 14-46 12q-34-72-265-436z"/></svg>