<svg width="5888" height="5888" viewBox="0 0 5888 5888" xmlns="http://www.w3.org/2000/svg"><path d="M2048 2688q0-26 19-45l512-512q29-31 70-14 39 17 39 59v69l-397 398q-19 19-19 45t19 45l397 397v70q0 42-39 59-13 5-25 5-27 0-45-19l-512-512q-19-19-19-45zm384 0q0-26 19-45l512-512q29-31 70-14 39 17 39 59v262q411 28 599 221 169 173 169 509 0 58-17 133.5t-38.5 138-48 125-40.5 90.5l-20 40q-8 17-28 17-6 0-9-1-25-8-23-34 43-400-106-565-64-71-170.5-110.5t-267.5-52.5v251q0 42-39 59-13 5-25 5-27 0-45-19l-512-512q-19-19-19-45z"/></svg>