<svg width="5888" height="5888" viewBox="0 0 5888 5888" xmlns="http://www.w3.org/2000/svg"><path d="M2049 3427q7-76 56-147t131-124q132-84 278-84 83 0 151 31 9-13 22-22l122-73-122-73q-13-9-22-22-68 31-151 31-146 0-278-84-82-53-131-124t-56-147q-5-59 15.5-113t63.5-93q85-79 222-79 145 0 277 84 83 52 132 123t56 148q4 48-10 97 4 1 12 5l110 66 690-387q14-8 31-8 16 0 29 7l128 64q30 16 35 51 3 36-25 56l-507 398 507 398q28 20 25 56-5 35-35 51l-128 64q-13 7-29 7-17 0-31-8l-690-387-110 66q-8 4-12 5 14 49 10 97-7 77-56 147.5t-132 123.5q-132 84-277 84-136 0-222-78-90-84-79-207zm167-19q-25 66 21 108 39 36 113 36 100 0 192-59 81-51 106-117t-21-108q-39-36-113-36-100 0-192 59-81 51-106 117zm0-800q25 66 106 117 92 59 192 59 74 0 113-36 46-42 21-108t-106-117q-92-59-192-59-74 0-113 36-46 42-21 108zm504 528l9 8q2 2 7 6 4 4 11 12t11 12l26 26 160-96 96 32 736-576-128-64-768 431v113zm0-256l96 58v-11q0-36 33-56l14-8-79-47-26 26q-3 3-10 11t-12 12q-2 2-4 3.5t-3 2.5zm224 128q0-26 19-45t45-19 45 19 19 45-19 45-45 19-45-19-19-45zm122 185l582 327 128-64-520-408-177 138q-2 3-13 7z"/></svg>