<svg width="5888" height="5888" viewBox="0 0 5888 5888" xmlns="http://www.w3.org/2000/svg"><path d="M2112 2880q0-143 55.5-273.5t150-225 225-150 273.5-55.5 273.5 55.5 225 150 150 225 55.5 273.5q0 220-124 399l343 343q37 37 37 90t-37.5 90.5-90.5 37.5q-54 0-90-38l-343-342q-179 124-399 124-143 0-273.5-55.5t-225-150-150-225-55.5-273.5zm256 0q0 185 131.5 316.5t316.5 131.5 316.5-131.5 131.5-316.5-131.5-316.5-316.5-131.5-316.5 131.5-131.5 316.5zm128 32v-64q0-13 9.5-22.5t22.5-9.5h576q13 0 22.5 9.5t9.5 22.5v64q0 13-9.5 22.5t-22.5 9.5h-576q-13 0-22.5-9.5t-9.5-22.5z"/></svg>