<svg width="5888" height="5888" viewBox="0 0 5888 5888" xmlns="http://www.w3.org/2000/svg"><path d="M2048 3680v-192q0-14 9-23t23-9h192q14 0 23 9t9 23v192q0 14-9 23t-23 9h-192q-14 0-23-9t-9-23zm384 0v-320q0-14 9-23t23-9h192q14 0 23 9t9 23v320q0 14-9 23t-23 9h-192q-14 0-23-9t-9-23zm384 0v-576q0-14 9-23t23-9h192q14 0 23 9t9 23v576q0 14-9 23t-23 9h-192q-14 0-23-9t-9-23zm384 0v-960q0-14 9-23t23-9h192q14 0 23 9t9 23v960q0 14-9 23t-23 9h-192q-14 0-23-9t-9-23zm384 0v-1472q0-14 9-23t23-9h192q14 0 23 9t9 23v1472q0 14-9 23t-23 9h-192q-14 0-23-9t-9-23z"/></svg>