<svg width="5888" height="5888" viewBox="0 0 5888 5888" xmlns="http://www.w3.org/2000/svg"><path d="M2176 2848v-64q0-40 28-68t68-28h320q40 0 68 28t28 68v64q0 40-28 68t-68 28h-320q-40 0-68-28t-28-68zm128 832v-672h256v672q0 14-9 23t-23 9h-192q-14 0-23-9t-9-23zm0-1056v-416q0-14 9-23t23-9h192q14 0 23 9t9 23v416h-256zm384 736v-64q0-40 28-68t68-28h320q40 0 68 28t28 68v64q0 40-28 68t-68 28h-320q-40 0-68-28t-28-68zm128 160h256v160q0 14-9 23t-23 9h-192q-14 0-23-9t-9-23v-160zm0-384v-928q0-14 9-23t23-9h192q14 0 23 9t9 23v928h-256zm384-544v-64q0-40 28-68t68-28h320q40 0 68 28t28 68v64q0 40-28 68t-68 28h-320q-40 0-68-28t-28-68zm128 1088v-928h256v928q0 14-9 23t-23 9h-192q-14 0-23-9t-9-23zm0-1312v-160q0-14 9-23t23-9h192q14 0 23 9t9 23v160h-256z"/></svg>