<svg width="5888" height="5888" viewBox="0 0 5888 5888" xmlns="http://www.w3.org/2000/svg"><path d="M2176 2944q0-209 103-385.5t279.5-279.5 385.5-103 385.5 103 279.5 279.5 103 385.5-103 385.5-279.5 279.5-385.5 103-385.5-103-279.5-279.5-103-385.5zm128 0q0 130 51 248.5t136.5 204 204 136.5 248.5 51 248.5-51 204-136.5 136.5-204 51-248.5-51-248.5-136.5-204-204-136.5-248.5-51-248.5 51-204 136.5-136.5 204-51 248.5zm256-256q0-53 37.5-90.5t90.5-37.5 90.5 37.5 37.5 90.5-37.5 90.5-90.5 37.5-90.5-37.5-37.5-90.5zm18 435q-8-25 4-48.5t38-31.5q25-8 48.5 4t31.5 38q25 80 92.5 129.5t151.5 49.5 151.5-49.5 92.5-129.5q8-26 32-38t49-4 37 31.5 4 48.5q-37 121-138 195t-228 74-228-74-138-195zm494-435q0-53 37.5-90.5t90.5-37.5 90.5 37.5 37.5 90.5-37.5 90.5-90.5 37.5-90.5-37.5-37.5-90.5z"/></svg>