<svg width="5888" height="5888" viewBox="0 0 5888 5888" xmlns="http://www.w3.org/2000/svg"><path d="M2160 2944q0-66 47-113t113-47 113 47 47 113-47 113-113 47-113-47-47-113zm176-448q0-73 51.5-124.5t124.5-51.5 124.5 51.5 51.5 124.5-51.5 124.5-124.5 51.5-124.5-51.5-51.5-124.5zm32 896q0-60 42-102t102-42q59 0 101.5 42t42.5 102-42.5 102-101.5 42q-60 0-102-42t-42-102zm400-1088q0-80 56-136t136-56 136 56 56 136-56 136-136 56-136-56-56-136zm64 1280q0-53 37.5-90.5t90.5-37.5 90.5 37.5 37.5 90.5-37.5 90.5-90.5 37.5-90.5-37.5-37.5-90.5zm464-192q0-46 33-79t79-33 79 33 33 79-33 79-79 33-79-33-33-79zm32-896q0-33 23.5-56.5t56.5-23.5 56.5 23.5 23.5 56.5-23.5 56.5-56.5 23.5-56.5-23.5-23.5-56.5zm176 448q0-40 28-68t68-28 68 28 28 68-28 68-68 28-68-28-28-68z"/></svg>