<svg width="5888" height="5888" viewBox="0 0 5888 5888" xmlns="http://www.w3.org/2000/svg"><path d="M1920 2820q0-86 61-146.5t146-60.5q73 0 130 46t73 117l783 315q49-29 106-29 14 0 21 1l173-248q1-114 82-194.5t195-80.5q115 0 196.5 81t81.5 196-81.5 196.5-196.5 81.5l-265 194q-8 80-67.5 133.5t-138.5 53.5q-73 0-130-46t-73-117l-783-315q-51 30-106 30-85 0-146-61t-61-147zm55 0q0 64 44.5 108.5t107.5 44.5q11 0 33-4l-64-26q-33-14-52.5-44.5t-19.5-66.5q0-50 35.5-85.5t85.5-35.5q20 0 41 8v-1l76 31q-20-37-56.5-59t-78.5-22q-63 0-107.5 44.5t-44.5 107.5zm1109 520q19 37 55.5 59t79.5 22q63 0 107.5-44.5t44.5-107.5-44.5-108-107.5-45q-13 0-33 4 2 1 20 8t21.5 8.5 18.5 8.5 19 10 16 11 15.5 13.5 11 14.5 10 18 5 21 2.5 25q0 50-35.5 85.5t-85.5 35.5q-14 0-31.5-4.5t-29-9-31.5-13.5-28-12zm420-523q0 77 54.5 131.5t131.5 54.5 132-54.5 55-131.5-55-131.5-132-54.5q-76 0-131 54.5t-55 131.5zm39 0q0-62 43.5-105.5t104.5-43.5 105 44 44 105-43.5 104.5-105.5 43.5q-61 0-104.5-43.5t-43.5-104.5z"/></svg>