<svg width="5888" height="5888" viewBox="0 0 5888 5888" xmlns="http://www.w3.org/2000/svg"><path d="M2176 3424v-960q0-119 84.5-203.5t203.5-84.5h960q119 0 203.5 84.5t84.5 203.5v960q0 119-84.5 203.5t-203.5 84.5h-960q-119 0-203.5-84.5t-84.5-203.5zm128-533q0 53 38 91t92 38q36 0 66-18l489 197q10 44 45.5 73t81.5 29q50 0 86.5-34t41.5-83l167-122q71 0 122-50.5t51-122.5-51-123-122-51q-72 0-122.5 50.5t-51.5 121.5l-108 155q-2 0-6.5-.5t-6.5-.5q-35 0-67 19l-489-197q-10-44-45.5-73t-80.5-29q-54 0-92 38t-38 92zm34 0q0-40 28-68t68-28q27 0 49.5 14t34.5 37l-48-19q-29-11-56.5 2t-38.5 41q-12 29-.5 57t39.5 40v1l40 16q-14 2-20 2-40 0-68-27.5t-28-67.5zm693 324q5 2 47 19 29 12 58-.5t41-41.5q11-29-1-57.5t-41-40.5l-40-16q14-2 21-2 39 0 67 27.5t28 67.5-28 67.5-67 27.5q-59 0-85-51zm263-326q0-48 34-82t83-34q48 0 82 34t34 82-34 82-82 34q-49 0-83-34t-34-82zm24-1q0 39 27.5 66t65.5 27 65.5-27 27.5-66q0-38-27.5-65.5t-65.5-27.5-65.5 27.5-27.5 65.5z"/></svg>