<svg width="5888" height="5888" viewBox="0 0 5888 5888" xmlns="http://www.w3.org/2000/svg"><path d="M2048 3200q0-182 71-348t191-286 286-191 348-71 348 71 286 191 191 286 71 348q0 261-141 483-19 29-54 29h-1402q-35 0-54-29-141-221-141-483zm128 0q0 53 37.5 90.5t90.5 37.5 90.5-37.5 37.5-90.5-37.5-90.5-90.5-37.5-90.5 37.5-37.5 90.5zm192-448q0 53 37.5 90.5t90.5 37.5 90.5-37.5 37.5-90.5-37.5-90.5-90.5-37.5-90.5 37.5-37.5 90.5zm390 591q-20 77 20 146t117 89 146-20 89-117q16-60-6-117t-72-91l101-382q6-26-7.5-48.5t-38.5-29.5-48 6.5-30 39.5l-101 382q-60 5-107 43.5t-63 98.5zm58-783q0 53 37.5 90.5t90.5 37.5 90.5-37.5 37.5-90.5-37.5-90.5-90.5-37.5-90.5 37.5-37.5 90.5zm448 192q0 53 37.5 90.5t90.5 37.5 90.5-37.5 37.5-90.5-37.5-90.5-90.5-37.5-90.5 37.5-37.5 90.5zm192 448q0 53 37.5 90.5t90.5 37.5 90.5-37.5 37.5-90.5-37.5-90.5-90.5-37.5-90.5 37.5-37.5 90.5z"/></svg>