<svg width="5888" height="5888" viewBox="0 0 5888 5888" xmlns="http://www.w3.org/2000/svg"><path d="M2176 2944q0-209 103-385.5t279.5-279.5 385.5-103 385.5 103 279.5 279.5 103 385.5-103 385.5-279.5 279.5-385.5 103-385.5-103-279.5-279.5-103-385.5zm224 0q0 148 73 273t198 198 273 73 273-73 198-198 73-273-73-273-198-198-273-73-273 73-198 198-73 273zm205 160q0-13 10-23l137-137-137-137q-10-10-10-23t10-23l146-146q10-10 23-10t23 10l137 137 137-137q10-10 23-10t23 10l146 146q10 10 10 23t-10 23l-137 137 137 137q10 10 10 23t-10 23l-146 146q-10 10-23 10t-23-10l-137-137-137 137q-10 10-23 10t-23-10l-146-146q-10-10-10-23z"/></svg>