<?xml version="1.0" encoding="UTF-8" standalone="no"?>
<!-- Created with Inkscape (http://www.inkscape.org/) -->

<svg
   xmlns:dc="http://purl.org/dc/elements/1.1/"
   xmlns:cc="http://creativecommons.org/ns#"
   xmlns:rdf="http://www.w3.org/1999/02/22-rdf-syntax-ns#"
   xmlns:svg="http://www.w3.org/2000/svg"
   xmlns="http://www.w3.org/2000/svg"
   version="1.1"
   width="256"
   height="256"
   id="svg2">
  <defs
     id="defs4">
    <linearGradient
       id="linearGradient3755">
      <stop
         id="stop3757"
         style="stop-color:#ff0202;stop-opacity:1"
         offset="0" />
    </linearGradient>
    <clipPath
       id="clipPath3833">
      <rect
         width="228.57141"
         height="222.14284"
         x="12.142857"
         y="815.93359"
         id="rect3835"
         style="fill:#5799cd;fill-opacity:1;stroke:#004978;stroke-width:2;stroke-linejoin:round;stroke-miterlimit:4;stroke-opacity:1;stroke-dasharray:none;stroke-dashoffset:0" />
    </clipPath>
    <clipPath
       id="clipPath3844">
      <path
         d="m 33.242857,19.571428 186.371413,0 c 11.6894,0 21.1,9.4106 21.1,21.100001 l 0,200.398431 c -228.587534,0.17285 -0.34975,0.27395 -228.571413,0 l 0,-200.398431 c 0,-11.689401 9.4106,-21.100001 21.1,-21.100001 z"
         id="path3846"
         style="fill:#5799cd;fill-opacity:1;stroke:#004978;stroke-width:2;stroke-linejoin:round;stroke-miterlimit:4;stroke-opacity:1;stroke-dashoffset:0" />
    </clipPath>
  </defs>
  <metadata
     id="metadata7">
    <rdf:RDF>
      <cc:Work
         rdf:about="">
        <dc:format>image/svg+xml</dc:format>
        <dc:type
           rdf:resource="http://purl.org/dc/dcmitype/StillImage" />
        <dc:title></dc:title>
      </cc:Work>
    </rdf:RDF>
  </metadata>
  <g
     transform="translate(0,-796.36218)"
     id="layer1">
    <path
       d="m 33.242857,19.571428 186.371413,0 c 11.6894,0 21.1,9.4106 21.1,21.100001 l 0,188.969861 c -228.587534,0.17285 -1.06404,0.27395 -229.285699,0 L 12.142857,40.671429 c 0.04418,-11.689317 9.4106,-21.100001 21.1,-21.100001 z"
       transform="translate(0,796.36218)"
       id="rect2985"
       style="fill:#5799cd;fill-opacity:1;stroke:#004978;stroke-width:2;stroke-linejoin:round;stroke-miterlimit:4;stroke-opacity:1;stroke-dasharray:none;stroke-dashoffset:0" />
    <path
       d="M 12.997307,45.748731 12.75746,228.49911 239.60458,228.16363 239.78315,45.496193 z"
       transform="translate(0,796.36218)"
       clip-path="url(#clipPath3844)"
       id="rect3838"
       style="fill:#ffffff;fill-opacity:1;stroke:none" />
  </g>
</svg>
